HIERARCHY
ROOT Hips
{
	OFFSET 50.313202 -8.662989 50.338299
	CHANNELS 6 Xposition Yposition Zposition Xrotation Yrotation Zrotation
	JOINT spine
	{
		OFFSET 0.000000 -0.507025 8.817039
		CHANNELS 3 Xrotation Yrotation Zrotation
		JOINT spine1
		{
			OFFSET 0.000000 -0.000002 10.776600
			CHANNELS 3 Xrotation Yrotation Zrotation
			JOINT spine2
			{
				OFFSET 0.000000 -0.000002 10.325897
				CHANNELS 3 Xrotation Yrotation Zrotation
				JOINT Neck
				{
					OFFSET 0.000000 -1.263954 26.511002
					CHANNELS 3 Xrotation Yrotation Zrotation
					JOINT Head
					{
						OFFSET 0.000000 -0.000002 8.009659
						CHANNELS 3 Xrotation Yrotation Zrotation
						End Site
						{
							OFFSET 0.000000 6.393857 19.387901
						}
					}
				}
				JOINT RightShoulder
				{
					OFFSET -4.347950 0.605420 11.151199
					CHANNELS 3 Xrotation Yrotation Zrotation
					JOINT RightArm
					{
						OFFSET 0.000000 -0.000002 14.625801
						CHANNELS 3 Xrotation Yrotation Zrotation
						JOINT RightArmRoll
						{
							OFFSET 0.000000 -0.000001 7.383400
							CHANNELS 3 Xrotation Yrotation Zrotation
							JOINT RightForeArm
							{
								OFFSET 0.000000 -0.000004 21.505196
								CHANNELS 3 Xrotation Yrotation Zrotation
								JOINT RightForeArmRoll
								{
									OFFSET 0.000000 -0.000001 8.285309
									CHANNELS 3 Xrotation Yrotation Zrotation
									JOINT RightHand
									{
										OFFSET 0.000000 -0.000003 16.626801
										CHANNELS 3 Xrotation Yrotation Zrotation
										End Site
										{
											OFFSET 0.000000 0.000000 0.100006
										}
									}
								}
							}
						}
					}
				}
				JOINT LeftShoulder
				{
					OFFSET 4.347950 0.605420 11.151199
					CHANNELS 3 Xrotation Yrotation Zrotation
					JOINT LeftArm
					{
						OFFSET 0.000000 -0.000002 14.625801
						CHANNELS 3 Xrotation Yrotation Zrotation
						JOINT LeftArmRoll
						{
							OFFSET 0.000000 -0.000001 7.383400
							CHANNELS 3 Xrotation Yrotation Zrotation
							JOINT LeftForeArm
							{
								OFFSET 0.000000 -0.000004 21.505196
								CHANNELS 3 Xrotation Yrotation Zrotation
								JOINT LeftForeArmRoll
								{
									OFFSET 0.000000 -0.000001 8.285324
									CHANNELS 3 Xrotation Yrotation Zrotation
									JOINT LeftHand
									{
										OFFSET 0.000000 -0.000003 16.626801
										CHANNELS 3 Xrotation Yrotation Zrotation
										End Site
										{
											OFFSET 0.000000 0.000000 0.100006
										}
									}
								}
							}
						}
					}
				}
			}
		}
	}
	JOINT RightUpLeg
	{
		OFFSET -7.815102 1.202170 -1.433090
		CHANNELS 3 Xrotation Yrotation Zrotation
		JOINT RightUpLegRoll
		{
			OFFSET 0.000000 -0.000003 19.495899
			CHANNELS 3 Xrotation Yrotation Zrotation
			JOINT RightLeg
			{
				OFFSET 0.000000 0.000004 -24.142700
				CHANNELS 3 Xrotation Yrotation Zrotation
				JOINT RightLegRoll
				{
					OFFSET 0.000000 -0.000004 24.221703
					CHANNELS 3 Xrotation Yrotation Zrotation
					JOINT RightFoot
					{
						OFFSET 0.000000 -0.000003 20.160500
						CHANNELS 3 Xrotation Yrotation Zrotation
						JOINT RightToeBase
						{
							OFFSET 0.000000 -0.000003 16.853203
							CHANNELS 3 Xrotation Yrotation Zrotation
							End Site
							{
								OFFSET 0.007145 0.940780 8.161873
							}
						}
					}
				}
			}
		}
	}
	JOINT LeftUpLeg
	{
		OFFSET 7.815102 1.202170 -1.433090
		CHANNELS 3 Xrotation Yrotation Zrotation
		JOINT LeftUpLegRoll
		{
			OFFSET 0.000000 -0.000003 19.495998
			CHANNELS 3 Xrotation Yrotation Zrotation
			JOINT LeftLeg
			{
				OFFSET 0.000000 -0.000004 24.142601
				CHANNELS 3 Xrotation Yrotation Zrotation
				JOINT LeftLegRoll
				{
					OFFSET 0.000000 -0.000004 24.445602
					CHANNELS 3 Xrotation Yrotation Zrotation
					JOINT LeftFoot
					{
						OFFSET 0.000000 -0.000003 19.936600
						CHANNELS 3 Xrotation Yrotation Zrotation
						JOINT LeftToeBase
						{
							OFFSET 0.000000 -0.000003 16.853195
							CHANNELS 3 Xrotation Yrotation Zrotation
							End Site
							{
								OFFSET -0.032013 0.940780 8.161865
							}
						}
					}
				}
			}
		}
	}
}
MOTION
Frames: 12
Frame Time: 0.041667
51.314003 -9.599576 51.204601 4.011693 2.627067 2.174254 3.635441 -0.901250 0.053607 11.276405 -1.794921 0.173058 12.921833 -1.792723 0.194553 44.712693 8.860243 0.859333 -4.154918 4.621334 2.865238 9.276271 -57.387953 11.010938 -86.020331 -117.808838 -113.271331 -0.000000 0.000008 0.000001 75.337690 -1.473962 0.192658 0.000002 0.000004 -3.007868 -5.000221 -7.998742 0.000163 -3.921910 63.590414 5.120422 -59.313247 124.587664 78.496161 -0.000001 -0.000000 0.000001 74.262646 3.462739 0.393809 -0.000000 -0.000009 3.000002 -5.000238 7.998700 -0.000177 -99.563900 -167.055499 3.070930 -179.999991 0.000005 -1.140995 73.740922 2.036414 0.787724 -0.000003 0.000001 1.711330 74.838690 6.601430 2.540910 25.456897 -7.347847 0.000004 -100.429572 171.395633 -4.453227 -0.000004 -0.000004 -1.684960 -109.453939 -4.186306 -4.074921 -0.000002 0.000005 -2.766760 78.704188 -7.459975 0.666112 25.465501 7.350138 -0.011462 
51.324802 -9.572478 51.252903 3.864229 2.628180 2.225760 3.646274 -0.902839 0.061276 11.298132 -1.797512 0.188652 12.943660 -1.795130 0.210181 44.622046 8.821971 0.832862 -4.131750 4.489949 2.829730 9.338726 -57.518259 11.060236 -86.271839 -117.920525 -113.289274 -0.000000 0.000010 -0.000001 75.249560 -1.619319 0.271166 0.000003 0.000006 -3.007870 -5.000219 -7.998744 0.000164 -3.915070 63.439692 5.097619 -59.130607 124.840982 78.286194 -0.000000 -0.000001 -0.000000 73.966571 3.549264 0.316630 -0.000003 -0.000010 3.000002 -5.000241 7.998704 -0.000175 -99.359547 -167.027604 3.069349 -179.999991 0.000006 -1.141992 73.783603 2.040864 0.787932 -0.000002 0.000001 1.709619 74.849598 6.595722 2.558310 25.456895 -7.347844 0.000005 -100.240225 171.474809 -4.436323 -0.000004 -0.000003 -1.685070 -109.367584 -4.186475 -4.061698 -0.000002 0.000004 -2.758160 78.653296 -7.457332 0.647023 25.465505 7.350139 -0.011452 
51.312103 -9.531939 51.303703 3.719594 2.627391 2.278432 3.656336 -0.903897 0.069724 11.318452 -1.798973 0.205745 12.963883 -1.796388 0.227287 44.532147 8.775334 0.806667 -4.111808 4.359384 2.792623 9.378777 -57.631941 11.085655 -86.462340 -118.031106 -113.243649 -0.000001 0.000009 0.000001 75.163903 -1.766911 0.349295 0.000003 0.000005 -3.007868 -5.000225 -7.998741 0.000164 -3.909663 63.259989 5.073724 -58.903319 125.108165 78.032835 0.000000 0.000000 -0.000002 73.658372 3.637086 0.238293 0.000001 -0.000014 2.999999 -5.000241 7.998705 -0.000176 -99.159375 -166.998398 3.065594 -179.999991 0.000006 -1.142990 73.826552 2.045781 0.788511 -0.000002 0.000001 1.707731 74.859269 6.589705 2.576839 25.456897 -7.347847 0.000005 -100.054007 171.556061 -4.419008 -0.000006 -0.000003 -1.685011 -109.279543 -4.185816 -4.048276 -0.000000 0.000005 -2.749211 78.599536 -7.454385 0.626483 25.465402 7.350134 -0.011426 
51.320305 -9.496158 51.353104 3.577369 2.625002 2.331928 3.665548 -0.904556 0.078738 11.336968 -1.799602 0.223921 12.982396 -1.796790 0.245468 44.443918 8.722214 0.780546 -4.095347 4.230800 2.754255 9.398915 -57.728424 11.090384 -86.593637 -118.140020 -113.136339 -0.000002 0.000008 0.000000 75.079386 -1.916346 0.427184 0.000005 0.000005 -3.007870 -5.000222 -7.998744 0.000163 -3.907094 63.056081 5.050863 -58.636443 125.388039 77.741063 0.000001 -0.000000 -0.000001 73.340058 3.726071 0.159056 -0.000000 -0.000010 3.000002 -5.000240 7.998702 -0.000176 -98.963362 -166.968332 3.059382 -179.999991 0.000006 -1.144984 73.869363 2.051211 0.789531 -0.000002 0.000001 1.705701 74.867336 6.583507 2.596143 25.456894 -7.347843 0.000004 -99.871019 171.638993 -4.402022 -0.000005 -0.000003 -1.684819 -109.190628 -4.184813 -4.034764 -0.000001 0.000005 -2.740031 78.543460 -7.451237 0.605011 25.465408 7.350136 -0.011429 
51.336803 -9.474539 51.366405 3.437123 2.621283 2.385908 3.673870 -0.904952 0.088109 11.353775 -1.799663 0.242775 12.999205 -1.796629 0.264321 44.358763 8.664366 0.754332 -4.082653 4.105373 2.714956 9.401535 -57.806678 11.077565 -86.666911 -118.246844 -112.969082 -0.000001 0.000007 0.000001 74.994193 -2.067299 0.505011 -0.000000 0.000007 -3.007869 -5.000223 -7.998736 0.000164 -3.908749 62.832829 5.031114 -58.339583 125.677270 77.421519 -0.000000 -0.000000 -0.000002 73.013138 3.816151 0.079388 0.000003 -0.000012 3.000001 -5.000238 7.998703 -0.000174 -98.771693 -166.937391 3.051395 -179.999991 0.000006 -1.145995 73.911854 2.057204 0.791093 -0.000004 0.000001 1.703569 74.873790 6.577094 2.616210 25.456897 -7.347849 0.000004 -99.691378 171.723072 -4.384206 -0.000005 -0.000004 -1.684569 -109.101863 -4.183997 -4.020295 -0.000001 0.000004 -2.730759 78.485608 -7.447974 0.582834 25.465300 7.350140 -0.011401 
51.336803 -9.446846 51.409000 3.298422 2.616544 2.440036 3.681228 -0.905221 0.097627 11.368681 -1.799461 0.261898 13.014104 -1.796200 0.283441 44.277671 8.603547 0.727986 -4.073954 3.984289 2.675066 9.389197 -57.865861 11.050488 -86.683700 -118.351455 -112.743638 -0.000000 0.000010 -0.000003 74.906855 -2.219408 0.582896 0.000001 0.000008 -3.007870 -5.000221 -7.998741 0.000164 -3.915928 62.595016 5.016463 -58.019636 125.973591 77.081512 0.000000 0.000000 -0.000001 72.679722 3.907088 -0.000387 -0.000001 -0.000016 2.999999 -5.000241 7.998705 -0.000176 -98.584437 -166.905890 3.042259 -179.999991 0.000005 -1.146992 73.953525 2.063801 0.793290 -0.000002 0.000001 1.701390 74.878278 6.570683 2.636493 25.456899 -7.347847 0.000007 -99.515323 171.807753 -4.367521 -0.000005 -0.000003 -1.684279 -109.014170 -4.182937 -4.007820 -0.000001 0.000005 -2.721499 78.426705 -7.444583 0.560506 25.465302 7.350130 -0.011389 
51.361103 -9.424209 51.424500 3.160866 2.611067 2.493988 3.687582 -0.905497 0.107083 11.381487 -1.799282 0.280879 13.026911 -1.795785 0.302418 44.201931 8.541483 0.701384 -4.069534 3.868721 2.634915 9.364543 -57.905101 11.012521 -86.645273 -118.453580 -112.461749 -0.000002 0.000008 0.000002 74.815898 -2.372320 0.660976 0.000002 0.000002 -3.007871 -5.000218 -7.998743 0.000162 -3.929867 62.347585 5.008865 -57.684356 126.274106 76.729526 -0.000000 0.000000 -0.000001 72.341511 3.998758 -0.080021 0.000000 -0.000012 3.000001 -5.000239 7.998704 -0.000173 -98.401606 -166.874157 3.032697 -179.999991 0.000005 -1.147990 73.994069 2.071098 0.796182 -0.000002 0.000001 1.699190 74.880750 6.564195 2.656986 25.456894 -7.347847 0.000005 -99.343005 171.892557 -4.351600 -0.000005 -0.000004 -1.684020 -108.928472 -4.182454 -3.994524 -0.000002 0.000005 -2.712400 78.367029 -7.441312 0.538320 25.465199 7.350136 -0.011366 
51.358704 -9.394897 51.461803 3.024030 2.605152 2.547432 3.692842 -0.905915 0.116266 11.392194 -1.799401 0.299313 13.037617 -1.795689 0.320852 44.132752 8.480156 0.674263 -4.069643 3.759864 2.594855 9.330224 -57.923542 10.967101 -86.552868 -118.553383 -112.124843 -0.000002 0.000009 0.000000 74.719633 -2.525735 0.739359 -0.000000 0.000006 -3.007867 -5.000221 -7.998740 0.000163 -3.951730 62.095128 5.010175 -57.338666 126.576833 76.370736 -0.000000 -0.000001 0.000001 72.000425 4.090966 -0.159300 0.000001 -0.000011 3.000002 -5.000240 7.998701 -0.000177 -98.223427 -166.842288 3.022274 -179.999991 0.000005 -1.148987 74.033206 2.079095 0.799874 -0.000002 0.000001 1.697009 74.880887 6.557835 2.677330 25.456894 -7.347847 0.000005 -99.174572 171.977033 -4.336324 -0.000005 -0.000003 -1.683830 -108.845744 -4.182468 -3.982421 -0.000001 0.000004 -2.703570 78.307388 -7.438125 0.516930 25.465201 7.350139 -0.011356 
51.356205 -9.355368 51.487400 2.887472 2.599100 2.600050 3.696972 -0.906611 0.124968 11.400605 -1.800103 0.316787 13.046024 -1.796183 0.338334 44.071348 8.421110 0.646732 -4.074526 3.658875 2.555197 9.288966 -57.920250 10.917682 -86.407624 -118.650590 -111.734614 -0.000000 0.000008 0.000002 74.616627 -2.679310 0.818153 0.000000 0.000006 -3.007870 -5.000222 -7.998741 0.000162 -3.982709 61.842602 5.022257 -56.991959 126.877676 76.015948 0.000000 -0.000000 0.000001 71.658137 4.183495 -0.237707 -0.000001 -0.000013 3.000001 -5.000241 7.998703 -0.000175 -98.049838 -166.810746 3.013651 -179.999991 0.000006 -1.150995 74.070635 2.087864 0.804427 -0.000003 0.000001 1.694890 74.878483 6.551679 2.697153 25.456899 -7.347846 0.000005 -99.010149 172.060661 -4.322654 -0.000005 -0.000004 -1.683761 -108.766972 -4.183512 -3.971634 -0.000002 0.000005 -2.695140 78.248157 -7.435224 0.496538 25.465098 7.350133 -0.011329 
51.357105 -9.320517 51.522800 2.750788 2.593203 2.651517 3.699912 -0.907720 0.132979 11.406617 -1.801691 0.332899 13.052042 -1.797581 0.354464 44.018722 8.366364 0.618539 -4.084468 3.566952 2.516295 9.243578 -57.894514 10.867875 -86.210655 -118.745584 -111.292537 -0.000001 0.000008 0.000002 74.505165 -2.832732 0.897343 -0.000003 0.000006 -3.007871 -5.000222 -7.998739 0.000161 -4.023919 61.594660 5.046936 -56.648431 127.174434 75.669781 0.000001 0.000000 0.000000 71.316457 4.276133 -0.315137 0.000001 -0.000012 3.000000 -5.000238 7.998706 -0.000176 -97.881009 -166.779600 3.004690 -179.999991 0.000006 -1.151992 74.105968 2.097455 0.809961 -0.000002 0.000001 1.692871 74.873346 6.545752 2.716363 25.456897 -7.347847 0.000004 -98.849892 172.143020 -4.310345 -0.000005 -0.000004 -1.683859 -108.693014 -4.185450 -3.962185 -0.000002 0.000005 -2.687251 78.190032 -7.432608 0.477692 25.465098 7.350132 -0.011318 
51.369102 -9.293277 51.532104 2.613559 2.587759 2.701507 3.701596 -0.909376 0.140088 11.410035 -1.804454 0.347236 13.055461 -1.800167 0.368833 43.976187 8.317541 0.589710 -4.099703 3.485271 2.478483 9.196781 -57.845234 10.821091 -85.963231 -118.838325 -110.800142 0.000000 0.000007 0.000002 74.383793 -2.985732 0.977133 -0.000001 0.000006 -3.007868 -5.000221 -7.998741 0.000164 -4.076470 61.356279 5.086037 -56.313216 127.464335 75.337738 -0.000000 -0.000000 0.000002 70.977372 4.368589 -0.391217 0.000001 -0.000013 2.999999 -5.000238 7.998700 -0.000174 -97.716976 -166.749342 2.997912 -179.999991 0.000005 -1.153987 74.138896 2.107911 0.816532 -0.000002 0.000001 1.691000 74.865382 6.540111 2.734571 25.456897 -7.347847 0.000006 -98.694021 172.223548 -4.300368 -0.000004 -0.000003 -1.684180 -108.624958 -4.188524 -3.955134 -0.000002 0.000005 -2.680001 78.133471 -7.430451 0.460803 25.465001 7.350140 -0.011296 
51.363705 -9.254237 51.566204 2.475336 2.583090 2.749712 3.701960 -0.911718 0.146087 11.410962 -1.808663 0.359397 13.056292 -1.804233 0.381040 43.944901 8.276431 0.560185 -4.120513 3.415011 2.442122 9.151427 -57.771707 10.780993 -85.666193 -118.929207 -110.258808 0.000000 0.000008 0.000000 74.250918 -3.137993 1.057500 -0.000001 0.000004 -3.007871 -5.000221 -7.998740 0.000164 -4.141499 61.132112 5.141371 -55.993300 127.743430 75.028098 0.000000 -0.000000 -0.000004 70.642570 4.460580 -0.465770 0.000001 -0.000014 3.000000 -5.000240 7.998704 -0.000174 -97.557894 -166.720014 2.993215 -179.999991 0.000006 -1.155994 74.169031 2.119286 0.824240 -0.000003 0.000001 1.689311 74.854229 6.534905 2.751725 25.456899 -7.347848 0.000007 -98.542698 172.301835 -4.292385 -0.000004 -0.000003 -1.684770 -108.563685 -4.193285 -3.949626 -0.000002 0.000005 -2.673542 78.079089 -7.428824 0.446307 25.465001 7.350133 -0.011293 
